<?xml version="1.0" encoding="utf-8"?>
<!-- Generator: Adobe Illustrator 27.9.0, SVG Export Plug-In . SVG Version: 6.00 Build 0)  -->
<svg version="1.1" xmlns="http://www.w3.org/2000/svg" xmlns:xlink="http://www.w3.org/1999/xlink" x="0px" y="0px"
	 viewBox="0 0 1366 768" style="enable-background:new 0 0 1366 768;" xml:space="preserve">
<style type="text/css">
	.st0{stroke:#FFFFFF;stroke-linecap:round;stroke-miterlimit:10;}
	.st1{fill:none;stroke:#FFFFFF;stroke-width:30;stroke-linecap:round;stroke-miterlimit:10;}
</style>
<g id="Layer_3">
	<rect x="456.5" y="114.5" class="st0" width="572" height="572"/>
</g>
<g id="Layer_2">
	<circle class="st1" cx="741.5" cy="400.5" r="268.5"/>
</g>
<g id="Layer_1">
	<line class="st1" x1="731" y1="557" x2="896" y2="557"/>
	<path class="st1" d="M741,393c9.1-1.58,28.6-6.26,47-22c13.88-11.87,21.29-25.03,25-33c0,73,0,146,0,219"/>
	<path class="st1" d="M581,290c2.1-9.79,9.12-36,33-55c24.21-19.26,66.53-31.74,94-11c27.45,20.72,23.9,62.39,23,73
		c-1.28,14.98-5.98,31.95-19,53c-36.3,58.68-101.05,90.54-130,103c57.33-0.67,114.67-1.33,172-2"/>
</g>
</svg>
