<?xml version="1.0" encoding="UTF-8"?>
<svg xmlns="http://www.w3.org/2000/svg" viewBox="0 0 567 567">
  <defs>
    <style>
      .cls-1 {
        fill: none;
        stroke: #fff;
        stroke-linecap: round;
        stroke-miterlimit: 10;
        stroke-width: 30px;
      }
    </style>
  </defs>
  <g id="Layer_2" data-name="Layer 2">
    <circle class="cls-1" cx="283.5" cy="283.5" r="268.5"/>
  </g>
  <g id="Layer_1" data-name="Layer 1">
    <line class="cls-1" x1="273" y1="440" x2="438" y2="440"/>
    <path class="cls-1" d="m283,276c9.1-1.58,28.6-6.26,47-22,13.88-11.87,21.29-25.03,25-33v219"/>
    <path class="cls-1" d="m123,173c2.1-9.79,9.12-36,33-55,24.21-19.26,66.53-31.74,94-11,27.45,20.72,23.9,62.39,23,73-1.28,14.98-5.98,31.95-19,53-36.3,58.68-101.05,90.54-130,103,57.33-.67,114.67-1.33,172-2"/>
  </g>
</svg>